<svg xmlns="http://www.w3.org/2000/svg" viewBox="0 0 141.01 150.69">
	<g>
		<line x1="12.51" y1="49.3" x2="111.01" y2="24.8" style="fill: none;stroke: #fff;stroke-linecap: round;stroke-linejoin: round;stroke-width: 4px"/>
		<path d="M78.21,30.5a5.4,5.4,0,0,0-5.5-2l-6.5,1.7a5.1,5.1,0,0,0-3.3,2.4,4.34,4.34,0,0,0-.7,1.9l1,4.1a5.53,5.53,0,0,0,5.4,2v9.5h-6a5.34,5.34,0,0,0-5.3,5.3v1.1H46.51a8.6,8.6,0,0,0-8.6,8.6v35.5a8.6,8.6,0,0,0,8.6,8.6h48.4a8.6,8.6,0,0,0,8.6-8.6V65.1a8.6,8.6,0,0,0-8.6-8.6H84.11V55.4a5.35,5.35,0,0,0-5.3-5.3h-6V39.5l2.4-.6a5.08,5.08,0,0,0,3.3-2.4,4.6,4.6,0,0,0,.7-1.9Zm-36,57.7h15.1V99a5.34,5.34,0,0,0,5.3,5.3h16.1A5.35,5.35,0,0,0,84,99V88.2h15.2v12.4A4.28,4.28,0,0,1,95,104.9H46.51a4.26,4.26,0,0,1-4.3-4.24V88.2ZM79.91,99a1.11,1.11,0,0,1-1.1,1.1H62.61a1.1,1.1,0,0,1-1.1-1.1V88.2h18.4ZM61.51,84V67.2h18.4V83.9H61.51Zm-19.3,0V67.2h15.1V83.9H42.21Zm.5-21a4.28,4.28,0,0,1,3.8-2.2h48.4a4.53,4.53,0,0,1,3.8,2.2Zm41.4,21V67.2h15.1V83.9H84.11Zm-4.2-27.5H61.51V55.4a1.11,1.11,0,0,1,1.1-1.1h16.1a1.12,1.12,0,0,1,1.1,1.1v1.1Zm-5-22.2a1.21,1.21,0,0,1-.7.5l-6.5,1.6a1.1,1.1,0,0,1-1.31-.84,1.06,1.06,0,0,1,.11-.76,1.15,1.15,0,0,1,.7-.5l6.4-1.6h.3a1.09,1.09,0,0,1,1.1.8A1.11,1.11,0,0,1,74.91,34.3Z" style="fill: #fff"/>
		<path d="M5.81,50a11.38,11.38,0,0,1,5.6-21.3,10.45,10.45,0,0,1,4.6,1L63.91,2a14.68,14.68,0,0,1,7.6-2,16,16,0,0,1,7.6,2L120,25.6a17.64,17.64,0,0,0-6.6,8.4L73.71,11.2a4.71,4.71,0,0,0-4.6,0L22.51,38.1a13.42,13.42,0,0,1,.2,2,11.38,11.38,0,0,1-7.5,10.7h-.1c-.3.1-.7.2-1.1.3-.1,0-.1,0-.2.1-.3.1-.7.1-1,.2h-.3c-.4,0-.8.1-1.3.1a6.56,6.56,0,0,1-1.4-.1.7.7,0,0,1-.4-.1c-.3-.1-.7-.1-1-.2-.1,0-.2-.1-.3-.1A14.28,14.28,0,0,1,5.81,50ZM141,40.1a11.45,11.45,0,0,1-3.9,8.6v54a15.14,15.14,0,0,1-7.6,13.1l-40.6,23.5a16.62,16.62,0,0,0-3.5-10.2l38.8-22.4a4.56,4.56,0,0,0,2.3-3.9V51a11.39,11.39,0,0,1-8.2-10.9,11.16,11.16,0,0,1,2.2-6.7.1.1,0,0,1,.1-.1c.3-.3.5-.7.8-1h0a11.93,11.93,0,0,1,2.1-1.7.3.3,0,0,1,.2-.1,4.15,4.15,0,0,1,.9-.5c.1,0,.2-.1.3-.1.4-.2.8-.3,1.2-.5h0a12.54,12.54,0,0,1,3.4-.5A11.13,11.13,0,0,1,141,39.66C141,39.8,141,40,141,40.1Zm-58.2,99.3c0,.6-.1,1.2-.1,1.7v.2a11.4,11.4,0,0,1-22,1.7l-47.4-27.3a15.1,15.1,0,0,1-7.6-13.1v-46a17.15,17.15,0,0,0,5.6.9,20.24,20.24,0,0,0,5-.7v45.8a4.52,4.52,0,0,0,2.3,3.9L62.71,132a11.54,11.54,0,0,1,8.6-4,11.25,11.25,0,0,1,9.2,4.7c0,.1.1.1.1.2s.3.4.4.6.1.2.2.2l.3.6c.1.1.1.2.2.3l.3.6c.1.1.1.3.2.4s.1.4.2.5a1.24,1.24,0,0,1,.1.5c0,.2.1.3.1.5s.1.4.1.7a.58.58,0,0,0,.1.4Z" style="fill: #0bf2e7;fill-rule: evenodd"/>
		<path d="M75.31,34.6a1.45,1.45,0,0,1-1,.7l-6.5,1.6h-.4a1.7,1.7,0,0,1-1.6-1.2,1.63,1.63,0,0,1,.2-1.2,1.45,1.45,0,0,1,1-.7l6.5-1.6h.4a1.56,1.56,0,0,1,1.64,1.47A1.58,1.58,0,0,1,75.31,34.6Z" style="fill: #0bf2e7"/>
		<path d="M61.51,66.7h18.4V99a1.56,1.56,0,0,1-1.5,1.6H63.11a1.55,1.55,0,0,1-1.5-1.6V87.7Z" style="fill: #0bf2e7"/>
	</g>
</svg>
