<svg xmlns="http://www.w3.org/2000/svg" viewBox="0 0 141 150.7">
	<g>
		<line x1="12.5" y1="49.3" x2="111" y2="24.8" style="fill: none;stroke: #000;stroke-linecap: round;stroke-linejoin: round;stroke-width: 4px"/>
		<path d="M78.2,30.5a5.38,5.38,0,0,0-5.5-2l-6.5,1.7a5.08,5.08,0,0,0-3.3,2.4,4.38,4.38,0,0,0-.7,1.9l1,4.1a5.54,5.54,0,0,0,5.4,2v9.5h-6a5.34,5.34,0,0,0-5.3,5.3v1.1H46.5a8.6,8.6,0,0,0-8.6,8.6v35.5a8.6,8.6,0,0,0,8.6,8.6H94.9a8.6,8.6,0,0,0,8.6-8.6V65.1a8.6,8.6,0,0,0-8.6-8.6H84.1V55.4a5.34,5.34,0,0,0-5.3-5.3h-6V39.5l2.4-.6a5.08,5.08,0,0,0,3.3-2.4,4.38,4.38,0,0,0,.7-1.9Zm-36,57.7H57.3V99a5.34,5.34,0,0,0,5.3,5.3H78.7A5.34,5.34,0,0,0,84,99V88.2H99.2v12.4a4.27,4.27,0,0,1-4.3,4.3H46.5a4.27,4.27,0,0,1-4.3-4.3ZM79.9,99a1.11,1.11,0,0,1-1.1,1.1H62.6A1.11,1.11,0,0,1,61.5,99V88.2H79.9ZM61.5,84V67.2H79.9V83.9H61.5ZM42.2,84V67.2H57.3V83.9H42.2Zm.5-21a4.29,4.29,0,0,1,3.8-2.2H94.9A4.5,4.5,0,0,1,98.7,63ZM84.1,84V67.2H99.2V83.9H84.1ZM79.9,56.5H61.5V55.4a1.11,1.11,0,0,1,1.1-1.1H78.7a1.11,1.11,0,0,1,1.1,1.1v1.1Zm-5-22.2a1.16,1.16,0,0,1-.7.5l-6.5,1.6a1.1,1.1,0,0,1-1.2-1.6,1.16,1.16,0,0,1,.7-.5l6.4-1.6h.3a1.08,1.08,0,0,1,1.1.8A1.06,1.06,0,0,1,74.9,34.3Z"/>
		<path d="M5.8,50a11.38,11.38,0,0,1,5.6-21.3,10.3,10.3,0,0,1,4.6,1L63.9,2a14.66,14.66,0,0,1,7.6-2,16,16,0,0,1,7.6,2L120,25.6a17.69,17.69,0,0,0-6.6,8.4L73.7,11.2a4.71,4.71,0,0,0-4.6,0L22.5,38.1a12.31,12.31,0,0,1,.2,2,11.38,11.38,0,0,1-7.5,10.7h-.1c-.3.1-.7.2-1.1.3-.1,0-.1,0-.2.1-.3.1-.7.1-1,.2h-.3c-.4,0-.8.1-1.3.1a6.6,6.6,0,0,1-1.4-.1.76.76,0,0,1-.4-.1c-.3-.1-.7-.1-1-.2-.1,0-.2-.1-.3-.1A14.6,14.6,0,0,1,5.8,50ZM119.9,25.6ZM141,40.1a11.43,11.43,0,0,1-3.9,8.6v54a15.12,15.12,0,0,1-7.6,13.1L88.9,139.3a16.56,16.56,0,0,0-3.5-10.2l38.8-22.4a4.54,4.54,0,0,0,2.3-3.9V51a11.4,11.4,0,0,1-8.2-10.9,11.21,11.21,0,0,1,2.2-6.7.1.1,0,0,1,.1-.1c.3-.3.5-.7.8-1h0a12,12,0,0,1,2.1-1.7.31.31,0,0,1,.2-.1,4.05,4.05,0,0,1,.9-.5c.1,0,.2-.1.3-.1.4-.2.8-.3,1.2-.5h0a12.7,12.7,0,0,1,3.4-.5A11.13,11.13,0,0,1,141,40.1ZM82.8,139.4c0,.6-.1,1.2-.1,1.7v.2a11.4,11.4,0,0,1-22,1.7L13.3,115.7a15.12,15.12,0,0,1-7.6-13.1v-46a17.3,17.3,0,0,0,5.6.9,20.12,20.12,0,0,0,5-.7v45.8a4.54,4.54,0,0,0,2.3,3.9L62.7,132a11.52,11.52,0,0,1,8.6-4,11.23,11.23,0,0,1,9.2,4.7c0,.1.1.1.1.2s.3.4.4.6.1.2.2.2l.3.6c.1.1.1.2.2.3l.3.6c.1.1.1.3.2.4s.1.4.2.5a1.09,1.09,0,0,1,.1.5c0,.2.1.3.1.5s.1.4.1.7a.6.6,0,0,0,.1.4Z" style="fill: #0bf2e7;fill-rule: evenodd"/>
		<path d="M75.3,34.6a1.45,1.45,0,0,1-1,.7l-6.5,1.6h-.4a1.71,1.71,0,0,1-1.6-1.2,1.64,1.64,0,0,1,.2-1.2,1.45,1.45,0,0,1,1-.7l6.5-1.6h.4a1.56,1.56,0,0,1,1.4,2.4Z" style="fill: #0bf2e7"/>
		<path d="M61.5,66.7H79.9V99a1.56,1.56,0,0,1-1.5,1.6H63.1A1.56,1.56,0,0,1,61.6,99V87.7Z" style="fill: #0bf2e7"/>
	</g>
</svg>
